<svg xmlns="http://www.w3.org/2000/svg" xmlns:xlink="http://www.w3.org/1999/xlink" width="707" zoomAndPan="magnify" viewBox="0 0 530.25 163.5" height="218" preserveAspectRatio="xMidYMid meet" version="1.0"><defs><g/><clipPath id="f9d2977925"><path d="M 0.433594 6.972656 L 148.789062 6.972656 L 148.789062 155.328125 L 0.433594 155.328125 Z M 0.433594 6.972656 " clip-rule="nonzero"/></clipPath></defs><g clip-path="url(#f9d2977925)"><path fill="#f9f9f9" d="M 74.875 69.628906 C 68.367188 69.628906 63.089844 74.90625 63.089844 81.414062 C 63.089844 87.921875 68.367188 93.199219 74.875 93.199219 C 79.234375 93.199219 83.039062 90.828125 85.078125 87.308594 L 149.316406 87.308594 L 149.316406 81.414062 C 149.316406 40.363281 115.917969 6.972656 74.875 6.972656 C 54.992188 6.972656 36.296875 14.714844 22.238281 28.773438 C 14.523438 36.492188 8.710938 45.605469 5.039062 55.542969 L 16.089844 59.640625 C 19.1875 51.273438 24.078125 43.605469 30.566406 37.105469 C 42.402344 25.273438 58.140625 18.757812 74.875 18.757812 C 107.4375 18.757812 134.277344 43.730469 137.257812 75.523438 L 118.390625 75.523438 C 115.503906 54.085938 97.089844 37.503906 74.875 37.503906 C 63.144531 37.503906 52.121094 42.074219 43.824219 50.367188 C 36.933594 57.257812 32.621094 66.03125 31.355469 75.523438 L 0.667969 75.523438 C 0.511719 77.472656 0.433594 79.4375 0.433594 81.414062 C 0.433594 122.464844 33.832031 155.855469 74.875 155.855469 C 94.761719 155.855469 113.453125 148.113281 127.515625 134.050781 L 131.683594 129.882812 L 101.761719 99.964844 L 97.59375 104.132812 C 91.527344 110.203125 83.457031 113.542969 74.875 113.542969 C 64.0625 113.542969 54.492188 108.164062 48.660156 99.953125 L 48.660156 99.964844 L 48.65625 99.96875 C 48.65625 99.96875 48.65625 99.96875 48.65625 99.964844 L 37.308594 104.167969 C 39.121094 107.144531 41.300781 109.933594 43.832031 112.457031 C 45.808594 114.4375 47.941406 116.191406 50.195312 117.734375 L 50.214844 117.71875 C 57.246094 122.511719 65.738281 125.320312 74.882812 125.320312 C 84.625 125.320312 93.878906 122.171875 101.488281 116.351562 L 114.828125 129.691406 C 103.617188 139 89.636719 144.070312 74.882812 144.070312 C 42.316406 144.070312 15.484375 119.097656 12.5 87.304688 L 43.300781 87.304688 C 42.941406 85.390625 42.746094 83.425781 42.746094 81.414062 C 42.746094 72.832031 46.085938 64.761719 52.15625 58.695312 C 58.222656 52.625 66.292969 49.285156 74.875 49.285156 C 90.578125 49.285156 103.675781 60.613281 106.449219 75.519531 L 85.078125 75.519531 C 83.039062 72 79.234375 69.628906 74.875 69.628906 Z M 74.875 69.628906 " fill-opacity="1" fill-rule="nonzero"/></g><g fill="#fefefe" fill-opacity="1"><g transform="translate(158.145998, 51.499511)"><g><path d="M 13.234375 0.109375 L 12.46875 0.03125 L 11.71875 0.109375 L 10.84375 0.078125 L 10.109375 -0.078125 L 8.5625 0.03125 L 7.875 0 L 7.03125 0.078125 L 4.296875 0.03125 L 3.15625 -0.453125 L 2.859375 -1.484375 L 2.78125 -2.3125 L 2.890625 -4.9375 L 2.78125 -5.703125 L 2.859375 -6.421875 L 2.890625 -12.59375 L 2.78125 -13.265625 L 2.8125 -16.390625 L 2.890625 -17.109375 L 2.78125 -17.90625 L 2.859375 -21.640625 L 2.734375 -22.46875 L 2.859375 -24.03125 L 2.78125 -25.484375 L 3.1875 -26.28125 L 4 -26.578125 L 4.75 -26.546875 L 5.515625 -26.625 L 6.203125 -26.546875 L 6.921875 -26.703125 L 7.6875 -26.578125 L 10.796875 -26.65625 L 11.5625 -26.578125 L 12.203125 -26.625 L 12.96875 -26.546875 L 13.8125 -26.625 L 16.890625 -26.65625 L 17.578125 -26.515625 L 18.375 -26.515625 L 19.125 -26.203125 L 19.46875 -25.484375 L 19.546875 -23.203125 L 19.515625 -22.4375 L 19.546875 -21.671875 L 19.171875 -21 L 18.375 -20.53125 L 17.640625 -20.5 L 12.203125 -20.578125 L 11.484375 -20.421875 L 10.765625 -20.453125 L 9.921875 -20.15625 L 9.578125 -19.4375 L 9.578125 -18.25 L 9.890625 -17.078125 L 10.6875 -16.734375 L 12.890625 -16.8125 L 14.484375 -16.703125 L 15.28125 -16.765625 L 17.53125 -16.765625 L 18.40625 -16.28125 L 18.78125 -15.21875 L 18.671875 -11.796875 L 18.40625 -11.03125 L 17.640625 -10.71875 L 16.765625 -10.765625 L 16.015625 -10.6875 L 14.453125 -10.71875 L 13 -10.65625 L 11.796875 -10.765625 L 10.65625 -10.71875 L 9.96875 -10.3125 L 9.625 -9.515625 L 9.625 -7.109375 L 9.921875 -6.421875 L 10.71875 -6.046875 L 11.5625 -6.125 L 12.28125 -6.015625 L 13.125 -6.046875 L 13.875 -5.96875 L 15.140625 -6.125 L 17.078125 -6.078125 L 17.796875 -5.96875 L 18.671875 -6.046875 L 19.46875 -5.703125 L 19.890625 -4.9375 L 19.890625 -1.109375 L 19.46875 -0.296875 L 18.671875 0.03125 Z M 13.234375 0.109375 "/></g></g></g><g fill="#fefefe" fill-opacity="1"><g transform="translate(179.933693, 51.499511)"><g><path d="M 2.859375 -1.109375 L 2.78125 -1.90625 L 2.921875 -2.625 L 2.859375 -3.390625 L 2.890625 -8.03125 L 2.8125 -8.703125 L 2.78125 -10.234375 L 2.890625 -10.984375 L 2.78125 -12.515625 L 2.890625 -13.234375 L 2.78125 -14.875 L 2.890625 -15.59375 L 2.8125 -16.359375 L 2.921875 -17.03125 L 2.8125 -17.84375 L 2.890625 -18.59375 L 2.859375 -19.3125 L 2.96875 -20.15625 L 2.890625 -20.875 L 2.78125 -21.640625 L 2.890625 -22.4375 L 2.96875 -23.15625 L 2.734375 -25.140625 L 3.234375 -26.171875 L 4.328125 -26.578125 L 8.296875 -26.65625 L 9.28125 -26.203125 L 9.65625 -25.0625 L 9.734375 -23.203125 L 9.65625 -22.359375 L 9.78125 -16.421875 L 9.65625 -15.625 L 9.78125 -14.796875 L 9.65625 -13.734375 L 9.703125 -11.828125 L 9.625 -11.03125 L 9.703125 -10.265625 L 9.65625 -9.4375 L 9.78125 -8.703125 L 9.734375 -7.296875 L 9.96875 -6.46875 L 10.765625 -6.125 L 17.453125 -6.046875 L 18.296875 -6.15625 L 18.90625 -5.78125 L 19.390625 -4.9375 L 19.28125 -4.21875 L 19.390625 -3.390625 L 19.3125 -2.703125 L 19.28125 -1.9375 L 19.359375 -1.109375 L 18.9375 -0.421875 L 17.875 -0.03125 L 4.40625 0.03125 L 3.1875 -0.421875 Z M 2.859375 -1.109375 "/></g></g></g><g fill="#fefefe" fill-opacity="1"><g transform="translate(200.390561, 51.499511)"><g><path d="M 2.734375 -1.109375 L 2.890625 -1.859375 L 2.921875 -2.625 L 2.859375 -4.109375 L 2.859375 -4.875 L 2.78125 -5.75 L 2.890625 -6.421875 L 2.859375 -7.15625 L 2.921875 -7.984375 L 2.8125 -8.78125 L 2.890625 -10.3125 L 2.78125 -11.796875 L 2.890625 -12.59375 L 2.890625 -19.390625 L 2.8125 -20.078125 L 2.890625 -20.875 L 2.734375 -22.8125 L 2.890625 -23.921875 L 2.8125 -25.4375 L 3.1875 -26.28125 L 4.296875 -26.546875 L 9.28125 -26.65625 L 9.96875 -26.578125 L 11.453125 -26.625 L 12.203125 -26.546875 L 13.875 -26.625 L 14.640625 -26.515625 L 15.328125 -26.578125 L 18.375 -26.546875 L 19.171875 -26.203125 L 19.546875 -25.4375 L 19.4375 -24.71875 L 19.390625 -23.890625 L 19.515625 -23.15625 L 19.59375 -21.609375 L 19.171875 -20.921875 L 18.375 -20.5 L 11.0625 -20.453125 L 9.890625 -20.125 L 9.515625 -19.015625 L 9.578125 -17.84375 L 10.046875 -17.15625 L 10.6875 -16.734375 L 13.6875 -16.765625 L 14.5625 -16.703125 L 15.359375 -16.703125 L 16.125 -16.765625 L 17.640625 -16.734375 L 18.296875 -16.3125 L 18.640625 -15.59375 L 18.71875 -14.828125 L 18.640625 -11.828125 L 18.25 -11.109375 L 17.5 -10.6875 L 16.8125 -10.65625 L 16.015625 -10.71875 L 14.984375 -10.65625 L 12.96875 -10.765625 L 12.203125 -10.6875 L 10.71875 -10.6875 L 10.046875 -10.265625 L 9.703125 -9.46875 L 9.65625 -7.609375 L 10 -6.421875 L 10.796875 -5.96875 L 11.640625 -6.046875 L 12.46875 -5.96875 L 13.203125 -6.078125 L 18.21875 -6.015625 L 19.359375 -5.625 L 19.859375 -4.875 L 19.78125 -4.140625 L 19.8125 -1.78125 L 19.734375 -1.0625 L 19.390625 -0.34375 L 18.59375 0.03125 L 17.875 0.109375 L 15.5625 -0.03125 L 13.234375 0.078125 L 12.546875 -0.03125 L 3.953125 0.03125 L 3.234375 -0.375 Z M 2.734375 -1.109375 "/></g></g></g><g fill="#fefefe" fill-opacity="1"><g transform="translate(222.178255, 51.499511)"><g><path d="M 14 0.375 L 13.265625 0.375 L 12.59375 0.234375 L 11.796875 0.15625 L 10.984375 -0.109375 L 10.421875 -0.265625 L 9.65625 -0.53125 L 7.078125 -1.9375 L 6.5 -2.390625 L 5.859375 -2.8125 L 4.484375 -4.140625 L 2.96875 -6.34375 L 2.703125 -7 L 2.3125 -7.6875 L 2.203125 -8.359375 L 1.90625 -9.09375 L 1.515625 -10.578125 L 1.515625 -12.09375 L 1.375 -13.3125 L 2.046875 -18.0625 L 3.796875 -21.484375 L 4.265625 -22.140625 L 5.28125 -23.078125 L 5.75 -23.6875 L 8.40625 -25.40625 L 9.09375 -25.671875 L 9.65625 -26.015625 L 10.375 -26.28125 L 11.859375 -26.578125 L 12.59375 -26.8125 L 13.234375 -26.890625 L 16.703125 -26.890625 L 18.59375 -26.625 L 20.078125 -26.203125 L 22.25 -25.21875 L 23.078125 -24.640625 L 25.0625 -22.859375 L 26.46875 -20.921875 L 27.078125 -19.46875 L 27.1875 -18.78125 L 27.5 -18.03125 L 27.265625 -17.234375 L 26.65625 -16.890625 L 25.90625 -16.8125 L 22.0625 -16.890625 L 21.21875 -17.234375 L 20.53125 -17.953125 L 20.1875 -18.59375 L 19.625 -19.203125 L 18.515625 -20.125 L 17.71875 -20.390625 L 16.28125 -20.65625 L 13.921875 -20.734375 L 12.59375 -20.34375 L 11.859375 -20.046875 L 10.609375 -19.125 L 9.65625 -17.953125 L 9.015625 -16.578125 L 8.78125 -15.890625 L 8.75 -15.140625 L 8.484375 -14.453125 L 8.4375 -13.234375 L 8.5625 -11.453125 L 9.015625 -9.96875 L 9.3125 -9.3125 L 10.71875 -7.484375 L 11.21875 -6.953125 L 11.9375 -6.625 L 14 -5.859375 L 16.125 -5.8125 L 16.921875 -5.890625 L 17.6875 -6.125 L 18.984375 -6.765625 L 20.421875 -8.328125 L 20.734375 -8.96875 L 21.484375 -9.703125 L 22.328125 -10.078125 L 26.390625 -10.046875 L 27.34375 -9.625 L 27.578125 -8.9375 L 27.453125 -8.21875 L 27.1875 -7.453125 L 27 -6.734375 L 26.65625 -6.046875 L 25.515625 -4.0625 L 24.875 -3.578125 L 24.453125 -2.921875 L 23.953125 -2.4375 L 23.3125 -1.984375 L 22.625 -1.5625 L 22.0625 -1.171875 L 19.96875 -0.265625 L 16.28125 0.5 Z M 14 0.375 "/></g></g></g><g fill="#fefefe" fill-opacity="1"><g transform="translate(251.190507, 51.499511)"><g><path d="M 7.296875 -1.171875 L 7.265625 -4.140625 L 7.34375 -4.90625 L 7.21875 -7.21875 L 7.265625 -8.03125 L 7.21875 -8.78125 L 7.375 -9.921875 L 7.265625 -11.03125 L 7.265625 -12.546875 L 7.34375 -13.3125 L 7.265625 -14.03125 L 7.375 -15.21875 L 7.265625 -19.390625 L 6.890625 -20.125 L 6.203125 -20.53125 L 2.8125 -20.578125 L 1.828125 -20.453125 L 1.0625 -20.84375 L 0.640625 -21.671875 L 0.6875 -25.484375 L 1.0625 -26.234375 L 1.90625 -26.625 L 13.234375 -26.546875 L 14.109375 -26.65625 L 14.875 -26.65625 L 15.625 -26.578125 L 16.390625 -26.578125 L 17.234375 -26.703125 L 17.953125 -26.703125 L 18.5625 -26.625 L 19.46875 -26.703125 L 20.234375 -26.3125 L 20.609375 -25.5625 L 20.53125 -22.4375 L 20.609375 -21.640625 L 20.234375 -20.875 L 19.359375 -20.53125 L 17.265625 -20.578125 L 16.578125 -20.5 L 15.828125 -20.53125 L 15.171875 -20.5 L 14.34375 -20.15625 L 14.03125 -19.46875 L 14.109375 -18.640625 L 14 -17.875 L 14.140625 -10.3125 L 14.03125 -8.703125 L 14.109375 -8.03125 L 14.03125 -5.703125 L 13.921875 -4.90625 L 14.03125 -4.265625 L 14.078125 -2.734375 L 14 -1.859375 L 14.03125 -1.140625 L 13.734375 -0.375 L 12.96875 -0.078125 L 10.609375 -0.078125 L 9.890625 0 L 9.125 -0.078125 L 8.40625 0 L 7.609375 -0.375 Z M 7.296875 -1.171875 "/></g></g></g><g fill="#fefefe" fill-opacity="1"><g transform="translate(272.445882, 51.499511)"><g><path d="M 2.921875 -1.21875 L 2.8125 -4.1875 L 2.890625 -4.984375 L 2.734375 -7.1875 L 2.859375 -8.75 L 2.734375 -9.578125 L 2.78125 -11.03125 L 2.859375 -11.828125 L 2.859375 -13.734375 L 2.734375 -14.828125 L 2.859375 -25.484375 L 3.15625 -26.28125 L 3.875 -26.625 L 4.71875 -26.578125 L 5.4375 -26.703125 L 7 -26.546875 L 7.71875 -26.65625 L 10 -26.578125 L 10.65625 -26.65625 L 11.484375 -26.578125 L 12.25 -26.65625 L 13.078125 -26.625 L 14.1875 -26.65625 L 15.140625 -26.578125 L 18.296875 -25.9375 L 19.625 -25.25 L 21.53125 -23.8125 L 21.875 -23.234375 L 22.40625 -22.671875 L 23.421875 -20.578125 L 23.625 -19.8125 L 23.734375 -19.09375 L 23.921875 -18.375 L 23.890625 -15.359375 L 23.46875 -13.921875 L 23.203125 -13.265625 L 22.78125 -12.59375 L 22.515625 -11.859375 L 22.0625 -11.21875 L 21 -10.1875 L 20.578125 -9.390625 L 20.6875 -8.484375 L 21.828125 -6.5 L 22.328125 -5.890625 L 22.703125 -5.203125 L 23.15625 -4.53125 L 23.5 -3.875 L 24.71875 -2.015625 L 25.21875 -1.0625 L 25.0625 -0.265625 L 24.265625 -0.078125 L 23.421875 0 L 21.90625 0 L 21.140625 -0.078125 L 20.3125 0 L 18.9375 -0.078125 L 17.984375 -0.296875 L 17.234375 -0.984375 L 16.765625 -1.59375 L 16.421875 -2.25 L 15.9375 -2.96875 L 14.875 -4.875 L 14.609375 -5.59375 L 13.609375 -6.921875 L 13 -7.5625 L 12.0625 -7.875 L 11.375 -7.828125 L 10.6875 -7.828125 L 9.921875 -7.453125 L 9.578125 -6.6875 L 9.65625 -4.328125 L 9.546875 -2.703125 L 9.703125 -1.90625 L 9.625 -1.109375 L 9.359375 -0.375 L 8.171875 0 L 7.03125 0 L 6.234375 -0.078125 L 4.671875 0.03125 L 3.953125 0 L 3.1875 -0.375 Z M 10.6875 -14 L 11.53125 -14 L 12.28125 -13.875 L 15.25 -14.140625 L 15.828125 -14.40625 L 16.28125 -14.875 L 16.703125 -15.515625 L 17 -16.28125 L 17.109375 -17.296875 L 17.03125 -18.40625 L 16.765625 -19.015625 L 16.390625 -19.59375 L 15.21875 -20.3125 L 13.46875 -20.53125 L 11.375 -20.578125 L 10.765625 -20.53125 L 10 -20.15625 L 9.546875 -19.390625 L 9.65625 -15.140625 L 10.046875 -14.34375 Z M 10.6875 -14 "/></g></g></g><g fill="#fefefe" fill-opacity="1"><g transform="translate(298.79646, 51.499511)"><g><path d="M 14.21875 0.453125 L 13.421875 0.375 L 12.0625 0.078125 L 11.21875 0 L 10.109375 -0.375 L 7.15625 -1.90625 L 5.890625 -2.890625 L 5.46875 -3.390625 L 4.90625 -3.921875 L 4.40625 -4.53125 L 3.953125 -4.984375 L 2.203125 -8.4375 L 1.859375 -9.890625 L 1.78125 -10.609375 L 1.59375 -11.296875 L 1.484375 -12.09375 L 1.59375 -15.171875 L 2.25 -18.109375 L 2.8125 -19.546875 L 4 -21.5625 L 5.859375 -23.734375 L 7.15625 -24.6875 L 7.828125 -25.03125 L 8.40625 -25.4375 L 11.25 -26.515625 L 15.28125 -27.078125 L 16.3125 -27.046875 L 18.515625 -26.65625 L 21.453125 -25.75 L 22.015625 -25.328125 L 23.15625 -24.828125 L 24.03125 -24.21875 L 25.140625 -23.28125 L 26.203125 -22.09375 L 27.046875 -20.953125 L 27.765625 -19.546875 L 28.71875 -16.703125 L 28.984375 -15.140625 L 29.09375 -13.234375 L 28.9375 -12.125 L 28.90625 -11.328125 L 28.71875 -10.578125 L 28.671875 -9.890625 L 28.375 -8.4375 L 27.796875 -7 L 26.125 -4.453125 L 25.59375 -3.921875 L 25.09375 -3.234375 L 24.03125 -2.3125 L 23.3125 -1.984375 L 22.75 -1.515625 L 21.484375 -0.84375 L 18.640625 0.109375 L 16.359375 0.421875 Z M 16.359375 -6.28125 L 17.109375 -6.421875 L 17.6875 -6.6875 L 18.375 -6.890625 L 20.1875 -8.140625 L 20.734375 -8.75 L 20.953125 -9.3125 L 21.375 -10 L 21.640625 -10.6875 L 21.9375 -12.09375 L 22.015625 -14.40625 L 21.90625 -15.09375 L 21.5625 -15.828125 L 21.109375 -17.265625 L 19.625 -18.828125 L 18.4375 -19.65625 L 17.765625 -19.96875 L 17.078125 -20.125 L 15.25 -20.34375 L 14.1875 -20.265625 L 12.703125 -19.890625 L 12.203125 -19.703125 L 10.3125 -18.40625 L 9.390625 -17.1875 L 9.171875 -16.5 L 8.859375 -15.828125 L 8.75 -15.09375 L 8.5625 -14.40625 L 8.5625 -12.09375 L 8.859375 -10.6875 L 9.203125 -10 L 9.390625 -9.390625 L 9.921875 -8.671875 L 10.421875 -8.140625 L 11.453125 -7.296875 L 12.0625 -6.953125 L 13.421875 -6.390625 L 14.265625 -6.28125 Z M 16.359375 -6.28125 "/></g></g></g><g fill="#fefefe" fill-opacity="1"><g transform="translate(329.291646, 51.499511)"><g><path d="M 22.4375 -0.609375 L 21.9375 -1.109375 L 21.484375 -1.671875 L 20.875 -2.171875 L 20.390625 -2.78125 L 16.703125 -6.46875 L 16.09375 -6.953125 L 10.65625 -12.28125 L 10.15625 -12.390625 L 9.78125 -11.9375 L 9.921875 -11.140625 L 9.8125 -1.828125 L 9.921875 -1.0625 L 9.578125 -0.296875 L 8.828125 0.078125 L 7.953125 0 L 7.15625 0.109375 L 5.25 0 L 3.953125 0.078125 L 3.234375 -0.34375 L 2.890625 -1.171875 L 2.890625 -1.90625 L 2.78125 -2.65625 L 2.890625 -4.109375 L 2.8125 -4.875 L 2.859375 -6.421875 L 2.734375 -7.21875 L 2.734375 -7.953125 L 2.8125 -8.78125 L 2.8125 -9.515625 L 2.890625 -10.1875 L 2.734375 -15.625 L 2.859375 -16.421875 L 2.8125 -17.234375 L 2.890625 -17.90625 L 2.78125 -19.46875 L 2.859375 -20.234375 L 2.78125 -25.5625 L 3.265625 -26.28125 L 4.1875 -26.734375 L 5.203125 -26.4375 L 6.734375 -25.40625 L 8.78125 -23.3125 L 9.28125 -22.671875 L 9.921875 -22.203125 L 10.3125 -21.640625 L 11.03125 -21.140625 L 11.453125 -20.578125 L 12.625 -19.59375 L 13.421875 -18.75 L 13.84375 -18.21875 L 14.453125 -17.765625 L 15.78125 -16.390625 L 16.359375 -15.9375 L 18.03125 -14.21875 L 18.5625 -14.078125 L 18.75 -14.6875 L 18.71875 -16.203125 L 18.859375 -17 L 18.859375 -17.71875 L 18.71875 -18.515625 L 18.75 -25.4375 L 19.125 -26.234375 L 20.046875 -26.625 L 20.796875 -26.578125 L 21.484375 -26.65625 L 22.28125 -26.546875 L 23.125 -26.625 L 23.84375 -26.625 L 24.609375 -26.546875 L 25.4375 -26.171875 L 25.90625 -25.484375 L 25.828125 -23.5 L 25.90625 -22.359375 L 25.75 -21.609375 L 25.75 -20.078125 L 25.828125 -19.359375 L 25.703125 -17.84375 L 25.859375 -13.265625 L 25.78125 -12.4375 L 25.9375 -11.375 L 25.75 -1.03125 L 25.40625 -0.234375 L 24.53125 0.1875 L 23.546875 -0.109375 Z M 22.4375 -0.609375 "/></g></g></g><g fill="#fefefe" fill-opacity="1"><g transform="translate(357.961674, 51.499511)"><g><path d="M 1.828125 -1.109375 L 1.828125 -4.03125 L 1.90625 -4.75 L 2.359375 -5.46875 L 4.875 -6.28125 L 5.25 -7.109375 L 5.328125 -8.59375 L 5.171875 -10.234375 L 5.359375 -10.984375 L 5.203125 -12.46875 L 5.28125 -13.234375 L 5.328125 -14.796875 L 5.203125 -15.671875 L 5.171875 -16.3125 L 5.28125 -19.546875 L 4.796875 -20.234375 L 2.46875 -21.03125 L 2.09375 -21.75 L 2.09375 -22.46875 L 2.015625 -23.234375 L 2.015625 -24.078125 L 2.09375 -24.71875 L 2.09375 -25.4375 L 2.515625 -26.234375 L 3.34375 -26.625 L 4.828125 -26.546875 L 5.546875 -26.578125 L 7.875 -26.546875 L 8.703125 -26.625 L 13.546875 -26.578125 L 14.75 -26.234375 L 15.0625 -25.484375 L 15.140625 -24.71875 L 15.0625 -24.03125 L 15.0625 -21.796875 L 14.640625 -21.0625 L 13.921875 -20.65625 L 13.078125 -20.609375 L 12.359375 -20.1875 L 11.9375 -19.515625 L 11.9375 -17.90625 L 12.015625 -17.109375 L 11.9375 -16.359375 L 12.015625 -15.625 L 11.9375 -14.453125 L 12.015625 -13.3125 L 11.859375 -11.71875 L 12.015625 -10.1875 L 11.9375 -7.078125 L 12.359375 -6.3125 L 14.90625 -5.515625 L 15.4375 -4.875 L 15.328125 -2.546875 L 15.40625 -1.859375 L 15.40625 -1.03125 L 14.984375 -0.34375 L 14.265625 0.03125 L 2.96875 -0.03125 L 2.203125 -0.296875 Z M 1.828125 -1.109375 "/></g></g></g><g fill="#fefefe" fill-opacity="1"><g transform="translate(375.22453, 51.499511)"><g><path d="M 14 0.375 L 13.265625 0.375 L 12.59375 0.234375 L 11.796875 0.15625 L 10.984375 -0.109375 L 10.421875 -0.265625 L 9.65625 -0.53125 L 7.078125 -1.9375 L 6.5 -2.390625 L 5.859375 -2.8125 L 4.484375 -4.140625 L 2.96875 -6.34375 L 2.703125 -7 L 2.3125 -7.6875 L 2.203125 -8.359375 L 1.90625 -9.09375 L 1.515625 -10.578125 L 1.515625 -12.09375 L 1.375 -13.3125 L 2.046875 -18.0625 L 3.796875 -21.484375 L 4.265625 -22.140625 L 5.28125 -23.078125 L 5.75 -23.6875 L 8.40625 -25.40625 L 9.09375 -25.671875 L 9.65625 -26.015625 L 10.375 -26.28125 L 11.859375 -26.578125 L 12.59375 -26.8125 L 13.234375 -26.890625 L 16.703125 -26.890625 L 18.59375 -26.625 L 20.078125 -26.203125 L 22.25 -25.21875 L 23.078125 -24.640625 L 25.0625 -22.859375 L 26.46875 -20.921875 L 27.078125 -19.46875 L 27.1875 -18.78125 L 27.5 -18.03125 L 27.265625 -17.234375 L 26.65625 -16.890625 L 25.90625 -16.8125 L 22.0625 -16.890625 L 21.21875 -17.234375 L 20.53125 -17.953125 L 20.1875 -18.59375 L 19.625 -19.203125 L 18.515625 -20.125 L 17.71875 -20.390625 L 16.28125 -20.65625 L 13.921875 -20.734375 L 12.59375 -20.34375 L 11.859375 -20.046875 L 10.609375 -19.125 L 9.65625 -17.953125 L 9.015625 -16.578125 L 8.78125 -15.890625 L 8.75 -15.140625 L 8.484375 -14.453125 L 8.4375 -13.234375 L 8.5625 -11.453125 L 9.015625 -9.96875 L 9.3125 -9.3125 L 10.71875 -7.484375 L 11.21875 -6.953125 L 11.9375 -6.625 L 14 -5.859375 L 16.125 -5.8125 L 16.921875 -5.890625 L 17.6875 -6.125 L 18.984375 -6.765625 L 20.421875 -8.328125 L 20.734375 -8.96875 L 21.484375 -9.703125 L 22.328125 -10.078125 L 26.390625 -10.046875 L 27.34375 -9.625 L 27.578125 -8.9375 L 27.453125 -8.21875 L 27.1875 -7.453125 L 27 -6.734375 L 26.65625 -6.046875 L 25.515625 -4.0625 L 24.875 -3.578125 L 24.453125 -2.921875 L 23.953125 -2.4375 L 23.3125 -1.984375 L 22.625 -1.5625 L 22.0625 -1.171875 L 19.96875 -0.265625 L 16.28125 0.5 Z M 14 0.375 "/></g></g></g><g fill="#fefefe" fill-opacity="1"><g transform="translate(404.236782, 51.499511)"><g><path d="M 11.03125 0.296875 L 9.4375 0.1875 L 8.703125 -0.078125 L 7.875 -0.1875 L 5.140625 -1.4375 L 4.484375 -1.859375 L 3.390625 -2.96875 L 2.4375 -4.140625 L 1.828125 -5.671875 L 1.671875 -6.34375 L 1.59375 -7.1875 L 1.859375 -7.984375 L 2.625 -8.328125 L 3.390625 -8.296875 L 4.140625 -8.359375 L 7.03125 -8.296875 L 7.796875 -7.984375 L 8.359375 -7.21875 L 8.9375 -6.6875 L 9.625 -6.28125 L 10.1875 -6.015625 L 11.0625 -5.78125 L 12.203125 -5.703125 L 13.265625 -5.75 L 14.6875 -6.15625 L 15.28125 -6.5 L 15.890625 -7.03125 L 16.125 -8.03125 L 15.9375 -9.015625 L 15.40625 -9.46875 L 14.03125 -10.046875 L 13.265625 -10.078125 L 12.59375 -10.1875 L 9.46875 -10.421875 L 8.09375 -10.71875 L 5.9375 -11.453125 L 4.609375 -12.25 L 3.53125 -13.234375 L 2.59375 -14.484375 L 2.09375 -15.828125 L 1.828125 -16.890625 L 1.78125 -19.4375 L 2.3125 -21.640625 L 2.703125 -22.25 L 2.96875 -22.9375 L 3.453125 -23.421875 L 3.875 -24.078125 L 4.5625 -24.53125 L 5.09375 -25.03125 L 5.859375 -25.484375 L 6.46875 -25.703125 L 7.078125 -26.09375 L 7.765625 -26.359375 L 10.765625 -26.96875 L 12.890625 -27 L 13.734375 -26.8125 L 14.40625 -26.734375 L 15.21875 -26.578125 L 17.296875 -25.859375 L 19.734375 -24.1875 L 20.234375 -23.625 L 20.609375 -23.015625 L 21.109375 -22.40625 L 21.71875 -21.03125 L 22.015625 -19.546875 L 21.671875 -18.828125 L 20.953125 -18.375 L 20.234375 -18.4375 L 19.546875 -18.375 L 17.03125 -18.4375 L 15.859375 -18.828125 L 14.609375 -20.15625 L 14.03125 -20.609375 L 13.203125 -20.921875 L 10.765625 -20.84375 L 10.078125 -20.6875 L 9.546875 -20.453125 L 8.90625 -19.96875 L 8.484375 -19.4375 L 8.359375 -18.4375 L 8.40625 -17.421875 L 9.015625 -16.8125 L 9.578125 -16.5 L 11.1875 -15.9375 L 15.015625 -15.4375 L 18.140625 -14.6875 L 20.15625 -13.765625 L 20.796875 -13.234375 L 21.71875 -12.0625 L 22.46875 -10.65625 L 22.671875 -9.921875 L 22.78125 -9.171875 L 22.75 -6.8125 L 22.625 -6.125 L 22.40625 -5.359375 L 22.09375 -4.671875 L 21.328125 -3.453125 L 20.265625 -2.25 L 19.046875 -1.40625 L 17.078125 -0.34375 L 13.34375 0.375 L 12.125 0.421875 Z M 11.03125 0.296875 "/></g></g></g><g fill="#fefefe" fill-opacity="1"><g transform="translate(428.496034, 51.499511)"><g/></g></g><g fill="#fefefe" fill-opacity="1"><g transform="translate(438.800521, 51.499511)"><g><path d="M 10.15625 0.453125 L 9.4375 0.375 L 7.875 -0.078125 L 7.109375 -0.375 L 6.421875 -0.609375 L 5.203125 -1.328125 L 4.5625 -1.828125 L 3.578125 -2.921875 L 2.703125 -4.109375 L 2.3125 -4.875 L 1.859375 -6.28125 L 1.71875 -8.0625 L 1.78125 -9.96875 L 2.203125 -11.375 L 3.34375 -13.265625 L 3.84375 -13.765625 L 4.328125 -14.40625 L 4.609375 -15.171875 L 4.53125 -15.859375 L 3.875 -17.15625 L 3.390625 -18.484375 L 3.390625 -20.84375 L 3.578125 -21.53125 L 3.734375 -22.359375 L 4.03125 -22.96875 L 4.53125 -23.625 L 4.828125 -24.15625 L 5.328125 -24.71875 L 6.578125 -25.75 L 7.1875 -26.09375 L 8.59375 -26.703125 L 10.109375 -27.078125 L 11.984375 -27.1875 L 14.34375 -27 L 16.15625 -26.4375 L 16.8125 -26.125 L 18.21875 -25.09375 L 19.171875 -24.03125 L 19.59375 -23.390625 L 19.921875 -22.671875 L 20.265625 -21.109375 L 19.921875 -20.3125 L 18.78125 -20.078125 L 15.328125 -20.046875 L 14.484375 -20.390625 L 13.765625 -20.875 L 13.078125 -21.296875 L 12.0625 -21.484375 L 11.03125 -21.328125 L 10.453125 -20.953125 L 9.96875 -20.390625 L 9.890625 -19.3125 L 10.15625 -18.25 L 10.921875 -17.84375 L 11.984375 -17.578125 L 12.96875 -17.078125 L 13.203125 -16.28125 L 13.265625 -13 L 12.9375 -12.203125 L 11.984375 -11.90625 L 10.953125 -11.75 L 10.15625 -11.375 L 9.515625 -10.875 L 9.09375 -10.375 L 8.75 -9.578125 L 8.640625 -8.5625 L 8.703125 -7.296875 L 9.09375 -6.6875 L 9.625 -6.078125 L 10.234375 -5.625 L 10.921875 -5.40625 L 12.015625 -5.203125 L 13.15625 -5.359375 L 13.84375 -5.703125 L 14.53125 -6.125 L 15.328125 -7.34375 L 15.484375 -16.5 L 15.9375 -17.15625 L 16.703125 -17.578125 L 17.453125 -17.578125 L 18.21875 -17.453125 L 19.28125 -17.578125 L 21.21875 -17.578125 L 22.015625 -17.640625 L 22.78125 -17.53125 L 23.46875 -17.15625 L 23.84375 -16.09375 L 23.8125 -14.90625 L 23.921875 -14.21875 L 23.921875 -12.78125 L 23.546875 -12.0625 L 22.703125 -11.5625 L 21.90625 -11.25 L 21.53125 -10.234375 L 21.453125 -7.53125 L 21.265625 -5.96875 L 20.84375 -4.5625 L 20.1875 -3.125 L 19.203125 -2.015625 L 18.0625 -0.984375 L 16.8125 -0.1875 L 15.328125 0.265625 L 13.546875 0.5 Z M 10.15625 0.453125 "/></g></g></g><g fill="#fefefe" fill-opacity="1"><g transform="translate(158.145998, 93.886916)"><g><path d="M 13.234375 0.296875 L 12.515625 0.265625 L 11.828125 0.109375 L 11.0625 -0.15625 L 10.375 -0.296875 L 8.671875 -1.03125 L 7.03125 -1.90625 L 5.328125 -3.390625 L 3.765625 -5.0625 L 2.125 -8.359375 L 1.59375 -10.53125 L 1.375 -13.3125 L 1.75 -16.578125 L 2.125 -18.140625 L 3.078125 -20.265625 L 3.796875 -21.375 L 4.828125 -22.671875 L 6.46875 -24.15625 L 7.5625 -24.984375 L 10.375 -26.3125 L 14.078125 -27.046875 L 16.421875 -27 L 17.1875 -26.890625 L 17.90625 -26.84375 L 21.5625 -25.640625 L 24.15625 -24 L 25.21875 -22.890625 L 25.640625 -22.171875 L 26.171875 -21.53125 L 26.515625 -20.921875 L 26.921875 -20.3125 L 27.15625 -19.515625 L 27.421875 -18.828125 L 27.65625 -17.984375 L 27.375 -17.234375 L 26.734375 -16.921875 L 25.59375 -16.8125 L 24.53125 -16.921875 L 23.765625 -16.890625 L 22.96875 -16.921875 L 22.28125 -16.84375 L 21.40625 -17.265625 L 20.6875 -17.984375 L 20.265625 -18.5625 L 19.171875 -19.65625 L 18.640625 -20.078125 L 17.953125 -20.34375 L 16.765625 -20.6875 L 15.140625 -20.765625 L 12.59375 -20.421875 L 11.5625 -19.859375 L 10.65625 -19.125 L 9.734375 -18.0625 L 9.359375 -17.34375 L 8.78125 -15.96875 L 8.515625 -14.453125 L 8.515625 -12.125 L 8.640625 -11.296875 L 8.828125 -10.609375 L 9.09375 -10.078125 L 9.359375 -9.3125 L 10.1875 -7.984375 L 11.296875 -7 L 12.625 -6.3125 L 14 -5.8125 L 15.09375 -5.703125 L 17.109375 -5.8125 L 18.4375 -6.546875 L 19.015625 -6.765625 L 19.625 -7.296875 L 20.5 -8.296875 L 20.875 -9.015625 L 21.484375 -9.625 L 22.359375 -10.078125 L 23.125 -10.046875 L 23.890625 -10.078125 L 24.640625 -9.96875 L 26.78125 -10.109375 L 27.53125 -9.625 L 27.765625 -8.9375 L 26.78125 -6.046875 L 25.96875 -4.671875 L 25.09375 -3.53125 L 24.03125 -2.46875 L 22.171875 -1.140625 L 21.53125 -0.84375 L 20.734375 -0.578125 L 20.046875 -0.1875 L 17.796875 0.265625 L 15.140625 0.453125 Z M 13.234375 0.296875 "/></g></g></g><g fill="#fefefe" fill-opacity="1"><g transform="translate(187.15825, 93.886916)"><g><path d="M 14.21875 0.453125 L 13.421875 0.375 L 12.0625 0.078125 L 11.21875 0 L 10.109375 -0.375 L 7.15625 -1.90625 L 5.890625 -2.890625 L 5.46875 -3.390625 L 4.90625 -3.921875 L 4.40625 -4.53125 L 3.953125 -4.984375 L 2.203125 -8.4375 L 1.859375 -9.890625 L 1.78125 -10.609375 L 1.59375 -11.296875 L 1.484375 -12.09375 L 1.59375 -15.171875 L 2.25 -18.109375 L 2.8125 -19.546875 L 4 -21.5625 L 5.859375 -23.734375 L 7.15625 -24.6875 L 7.828125 -25.03125 L 8.40625 -25.4375 L 11.25 -26.515625 L 15.28125 -27.078125 L 16.3125 -27.046875 L 18.515625 -26.65625 L 21.453125 -25.75 L 22.015625 -25.328125 L 23.15625 -24.828125 L 24.03125 -24.21875 L 25.140625 -23.28125 L 26.203125 -22.09375 L 27.046875 -20.953125 L 27.765625 -19.546875 L 28.71875 -16.703125 L 28.984375 -15.140625 L 29.09375 -13.234375 L 28.9375 -12.125 L 28.90625 -11.328125 L 28.71875 -10.578125 L 28.671875 -9.890625 L 28.375 -8.4375 L 27.796875 -7 L 26.125 -4.453125 L 25.59375 -3.921875 L 25.09375 -3.234375 L 24.03125 -2.3125 L 23.3125 -1.984375 L 22.75 -1.515625 L 21.484375 -0.84375 L 18.640625 0.109375 L 16.359375 0.421875 Z M 16.359375 -6.28125 L 17.109375 -6.421875 L 17.6875 -6.6875 L 18.375 -6.890625 L 20.1875 -8.140625 L 20.734375 -8.75 L 20.953125 -9.3125 L 21.375 -10 L 21.640625 -10.6875 L 21.9375 -12.09375 L 22.015625 -14.40625 L 21.90625 -15.09375 L 21.5625 -15.828125 L 21.109375 -17.265625 L 19.625 -18.828125 L 18.4375 -19.65625 L 17.765625 -19.96875 L 17.078125 -20.125 L 15.25 -20.34375 L 14.1875 -20.265625 L 12.703125 -19.890625 L 12.203125 -19.703125 L 10.3125 -18.40625 L 9.390625 -17.1875 L 9.171875 -16.5 L 8.859375 -15.828125 L 8.75 -15.09375 L 8.5625 -14.40625 L 8.5625 -12.09375 L 8.859375 -10.6875 L 9.203125 -10 L 9.390625 -9.390625 L 9.921875 -8.671875 L 10.421875 -8.140625 L 11.453125 -7.296875 L 12.0625 -6.953125 L 13.421875 -6.390625 L 14.265625 -6.28125 Z M 16.359375 -6.28125 "/></g></g></g><g fill="#fefefe" fill-opacity="1"><g transform="translate(217.653436, 93.886916)"><g><path d="M 2.8125 -1.109375 L 2.890625 -1.828125 L 2.734375 -7.21875 L 2.890625 -7.953125 L 2.78125 -24.71875 L 2.859375 -25.515625 L 3.265625 -26.28125 L 4.03125 -26.703125 L 5.140625 -26.390625 L 6.234375 -25.59375 L 7.078125 -24.71875 L 7.484375 -24.1875 L 8.03125 -23.6875 L 8.4375 -23.125 L 8.9375 -22.59375 L 9.578125 -22.015625 L 10.5 -20.875 L 13.125 -18.171875 L 13.578125 -17.578125 L 14.1875 -17.078125 L 14.640625 -16.421875 L 15.140625 -15.9375 L 15.828125 -15.703125 L 16.65625 -15.96875 L 22.28125 -21.9375 L 22.625 -22.515625 L 24.796875 -24.765625 L 25.671875 -25.828125 L 26.625 -26.359375 L 27.765625 -26.703125 L 28.53125 -26.234375 L 28.9375 -25.515625 L 28.90625 -24.71875 L 28.984375 -24.078125 L 28.90625 -23.28125 L 29.015625 -12.515625 L 28.90625 -11.828125 L 28.984375 -11.0625 L 28.90625 -10.265625 L 28.9375 -9.515625 L 28.828125 -8.75 L 28.90625 -7.265625 L 28.828125 -6.546875 L 28.984375 -1.984375 L 28.859375 -1.21875 L 28.453125 -0.421875 L 27.71875 0.03125 L 23.15625 0 L 22.328125 -0.296875 L 21.9375 -1.109375 L 22.0625 -6.34375 L 21.9375 -7.765625 L 21.984375 -8.515625 L 21.9375 -9.203125 L 22.0625 -9.921875 L 21.9375 -10.6875 L 21.640625 -11.140625 L 21.1875 -11.0625 L 20.65625 -10.53125 L 20.15625 -9.890625 L 16.96875 -6.65625 L 16.3125 -6.203125 L 15.4375 -6.203125 L 14.1875 -7.21875 L 13.6875 -7.875 L 11.5625 -9.890625 L 10.609375 -11.0625 L 10.046875 -11.21875 L 9.703125 -10.6875 L 9.84375 -8.484375 L 9.734375 -3.34375 L 9.84375 -2.546875 L 9.890625 -1.75 L 9.8125 -1.03125 L 9.390625 -0.421875 L 8.25 -0.078125 L 4.0625 0 L 3.15625 -0.421875 Z M 2.8125 -1.109375 "/></g></g></g><g fill="#fefefe" fill-opacity="1"><g transform="translate(249.441422, 93.886916)"><g><path d="M 2.8125 -1.109375 L 2.890625 -1.828125 L 2.734375 -7.21875 L 2.890625 -7.953125 L 2.78125 -24.71875 L 2.859375 -25.515625 L 3.265625 -26.28125 L 4.03125 -26.703125 L 5.140625 -26.390625 L 6.234375 -25.59375 L 7.078125 -24.71875 L 7.484375 -24.1875 L 8.03125 -23.6875 L 8.4375 -23.125 L 8.9375 -22.59375 L 9.578125 -22.015625 L 10.5 -20.875 L 13.125 -18.171875 L 13.578125 -17.578125 L 14.1875 -17.078125 L 14.640625 -16.421875 L 15.140625 -15.9375 L 15.828125 -15.703125 L 16.65625 -15.96875 L 22.28125 -21.9375 L 22.625 -22.515625 L 24.796875 -24.765625 L 25.671875 -25.828125 L 26.625 -26.359375 L 27.765625 -26.703125 L 28.53125 -26.234375 L 28.9375 -25.515625 L 28.90625 -24.71875 L 28.984375 -24.078125 L 28.90625 -23.28125 L 29.015625 -12.515625 L 28.90625 -11.828125 L 28.984375 -11.0625 L 28.90625 -10.265625 L 28.9375 -9.515625 L 28.828125 -8.75 L 28.90625 -7.265625 L 28.828125 -6.546875 L 28.984375 -1.984375 L 28.859375 -1.21875 L 28.453125 -0.421875 L 27.71875 0.03125 L 23.15625 0 L 22.328125 -0.296875 L 21.9375 -1.109375 L 22.0625 -6.34375 L 21.9375 -7.765625 L 21.984375 -8.515625 L 21.9375 -9.203125 L 22.0625 -9.921875 L 21.9375 -10.6875 L 21.640625 -11.140625 L 21.1875 -11.0625 L 20.65625 -10.53125 L 20.15625 -9.890625 L 16.96875 -6.65625 L 16.3125 -6.203125 L 15.4375 -6.203125 L 14.1875 -7.21875 L 13.6875 -7.875 L 11.5625 -9.890625 L 10.609375 -11.0625 L 10.046875 -11.21875 L 9.703125 -10.6875 L 9.84375 -8.484375 L 9.734375 -3.34375 L 9.84375 -2.546875 L 9.890625 -1.75 L 9.8125 -1.03125 L 9.390625 -0.421875 L 8.25 -0.078125 L 4.0625 0 L 3.15625 -0.421875 Z M 2.8125 -1.109375 "/></g></g></g><g fill="#fefefe" fill-opacity="1"><g transform="translate(281.229407, 93.886916)"><g><path d="M 11.21875 0.296875 L 10.5 0.109375 L 9.65625 0.078125 L 9.09375 -0.234375 L 8.21875 -0.5 L 7.484375 -0.796875 L 6.921875 -1.25 L 5.625 -2.015625 L 5.140625 -2.515625 L 4.109375 -3.765625 L 3.34375 -5.0625 L 3.125 -5.78125 L 3 -6.5 L 2.78125 -7.265625 L 2.78125 -8.0625 L 2.65625 -9.171875 L 2.703125 -11.90625 L 2.59375 -13.421875 L 2.65625 -14.140625 L 2.625 -14.90625 L 2.703125 -15.625 L 2.59375 -16.46875 L 2.734375 -17.1875 L 2.546875 -19.46875 L 2.65625 -20.921875 L 2.515625 -22.515625 L 2.703125 -23.15625 L 2.703125 -25.4375 L 3.046875 -26.203125 L 3.796875 -26.625 L 7.796875 -26.578125 L 8.703125 -26.234375 L 9.125 -25.515625 L 9.125 -24.71875 L 8.9375 -23.578125 L 8.9375 -22.859375 L 9.046875 -21.75 L 9.046875 -18.71875 L 8.96875 -18.03125 L 9.015625 -15.671875 L 9.125 -14.90625 L 9.203125 -8.21875 L 9.4375 -7.421875 L 9.890625 -6.890625 L 10.453125 -6.390625 L 11.296875 -5.96875 L 11.984375 -5.78125 L 13.234375 -5.703125 L 14.265625 -5.78125 L 15.78125 -6.28125 L 16.390625 -6.84375 L 16.734375 -7.375 L 17.078125 -8.09375 L 17.234375 -9.3125 L 17.1875 -11.25 L 17.265625 -12.015625 L 17.234375 -13.390625 L 17.296875 -14.21875 L 17.15625 -14.90625 L 17.265625 -17.90625 L 17.15625 -18.71875 L 17.234375 -19.515625 L 17.1875 -21 L 17.265625 -21.75 L 17.234375 -25.484375 L 17.609375 -26.3125 L 18.4375 -26.65625 L 22.015625 -26.625 L 23.234375 -26.28125 L 23.546875 -25.4375 L 23.65625 -24.796875 L 23.625 -21.71875 L 23.734375 -20.953125 L 23.625 -20.234375 L 23.65625 -19.390625 L 23.578125 -18.21875 L 23.625 -17.15625 L 23.546875 -16.359375 L 23.578125 -15.625 L 23.734375 -14.875 L 23.734375 -14.1875 L 23.578125 -13.390625 L 23.6875 -10.3125 L 23.421875 -6.46875 L 23.15625 -5.75 L 22.78125 -5.09375 L 22.546875 -4.328125 L 22.0625 -3.765625 L 21.640625 -3.078125 L 19.921875 -1.5625 L 19.3125 -1.140625 L 18.640625 -0.84375 L 18.03125 -0.453125 L 17.265625 -0.265625 L 16.46875 0.03125 L 14.953125 0.375 L 13.046875 0.453125 Z M 11.21875 0.296875 "/></g></g></g><g fill="#fefefe" fill-opacity="1"><g transform="translate(307.465905, 93.886916)"><g><path d="M 22.4375 -0.609375 L 21.9375 -1.109375 L 21.484375 -1.671875 L 20.875 -2.171875 L 20.390625 -2.78125 L 16.703125 -6.46875 L 16.09375 -6.953125 L 10.65625 -12.28125 L 10.15625 -12.390625 L 9.78125 -11.9375 L 9.921875 -11.140625 L 9.8125 -1.828125 L 9.921875 -1.0625 L 9.578125 -0.296875 L 8.828125 0.078125 L 7.953125 0 L 7.15625 0.109375 L 5.25 0 L 3.953125 0.078125 L 3.234375 -0.34375 L 2.890625 -1.171875 L 2.890625 -1.90625 L 2.78125 -2.65625 L 2.890625 -4.109375 L 2.8125 -4.875 L 2.859375 -6.421875 L 2.734375 -7.21875 L 2.734375 -7.953125 L 2.8125 -8.78125 L 2.8125 -9.515625 L 2.890625 -10.1875 L 2.734375 -15.625 L 2.859375 -16.421875 L 2.8125 -17.234375 L 2.890625 -17.90625 L 2.78125 -19.46875 L 2.859375 -20.234375 L 2.78125 -25.5625 L 3.265625 -26.28125 L 4.1875 -26.734375 L 5.203125 -26.4375 L 6.734375 -25.40625 L 8.78125 -23.3125 L 9.28125 -22.671875 L 9.921875 -22.203125 L 10.3125 -21.640625 L 11.03125 -21.140625 L 11.453125 -20.578125 L 12.625 -19.59375 L 13.421875 -18.75 L 13.84375 -18.21875 L 14.453125 -17.765625 L 15.78125 -16.390625 L 16.359375 -15.9375 L 18.03125 -14.21875 L 18.5625 -14.078125 L 18.75 -14.6875 L 18.71875 -16.203125 L 18.859375 -17 L 18.859375 -17.71875 L 18.71875 -18.515625 L 18.75 -25.4375 L 19.125 -26.234375 L 20.046875 -26.625 L 20.796875 -26.578125 L 21.484375 -26.65625 L 22.28125 -26.546875 L 23.125 -26.625 L 23.84375 -26.625 L 24.609375 -26.546875 L 25.4375 -26.171875 L 25.90625 -25.484375 L 25.828125 -23.5 L 25.90625 -22.359375 L 25.75 -21.609375 L 25.75 -20.078125 L 25.828125 -19.359375 L 25.703125 -17.84375 L 25.859375 -13.265625 L 25.78125 -12.4375 L 25.9375 -11.375 L 25.75 -1.03125 L 25.40625 -0.234375 L 24.53125 0.1875 L 23.546875 -0.109375 Z M 22.4375 -0.609375 "/></g></g></g><g fill="#fefefe" fill-opacity="1"><g transform="translate(336.135933, 93.886916)"><g><path d="M 1.828125 -1.109375 L 1.828125 -4.03125 L 1.90625 -4.75 L 2.359375 -5.46875 L 4.875 -6.28125 L 5.25 -7.109375 L 5.328125 -8.59375 L 5.171875 -10.234375 L 5.359375 -10.984375 L 5.203125 -12.46875 L 5.28125 -13.234375 L 5.328125 -14.796875 L 5.203125 -15.671875 L 5.171875 -16.3125 L 5.28125 -19.546875 L 4.796875 -20.234375 L 2.46875 -21.03125 L 2.09375 -21.75 L 2.09375 -22.46875 L 2.015625 -23.234375 L 2.015625 -24.078125 L 2.09375 -24.71875 L 2.09375 -25.4375 L 2.515625 -26.234375 L 3.34375 -26.625 L 4.828125 -26.546875 L 5.546875 -26.578125 L 7.875 -26.546875 L 8.703125 -26.625 L 13.546875 -26.578125 L 14.75 -26.234375 L 15.0625 -25.484375 L 15.140625 -24.71875 L 15.0625 -24.03125 L 15.0625 -21.796875 L 14.640625 -21.0625 L 13.921875 -20.65625 L 13.078125 -20.609375 L 12.359375 -20.1875 L 11.9375 -19.515625 L 11.9375 -17.90625 L 12.015625 -17.109375 L 11.9375 -16.359375 L 12.015625 -15.625 L 11.9375 -14.453125 L 12.015625 -13.3125 L 11.859375 -11.71875 L 12.015625 -10.1875 L 11.9375 -7.078125 L 12.359375 -6.3125 L 14.90625 -5.515625 L 15.4375 -4.875 L 15.328125 -2.546875 L 15.40625 -1.859375 L 15.40625 -1.03125 L 14.984375 -0.34375 L 14.265625 0.03125 L 2.96875 -0.03125 L 2.203125 -0.296875 Z M 1.828125 -1.109375 "/></g></g></g><g fill="#fefefe" fill-opacity="1"><g transform="translate(353.398789, 93.886916)"><g><path d="M 14 0.375 L 13.265625 0.375 L 12.59375 0.234375 L 11.796875 0.15625 L 10.984375 -0.109375 L 10.421875 -0.265625 L 9.65625 -0.53125 L 7.078125 -1.9375 L 6.5 -2.390625 L 5.859375 -2.8125 L 4.484375 -4.140625 L 2.96875 -6.34375 L 2.703125 -7 L 2.3125 -7.6875 L 2.203125 -8.359375 L 1.90625 -9.09375 L 1.515625 -10.578125 L 1.515625 -12.09375 L 1.375 -13.3125 L 2.046875 -18.0625 L 3.796875 -21.484375 L 4.265625 -22.140625 L 5.28125 -23.078125 L 5.75 -23.6875 L 8.40625 -25.40625 L 9.09375 -25.671875 L 9.65625 -26.015625 L 10.375 -26.28125 L 11.859375 -26.578125 L 12.59375 -26.8125 L 13.234375 -26.890625 L 16.703125 -26.890625 L 18.59375 -26.625 L 20.078125 -26.203125 L 22.25 -25.21875 L 23.078125 -24.640625 L 25.0625 -22.859375 L 26.46875 -20.921875 L 27.078125 -19.46875 L 27.1875 -18.78125 L 27.5 -18.03125 L 27.265625 -17.234375 L 26.65625 -16.890625 L 25.90625 -16.8125 L 22.0625 -16.890625 L 21.21875 -17.234375 L 20.53125 -17.953125 L 20.1875 -18.59375 L 19.625 -19.203125 L 18.515625 -20.125 L 17.71875 -20.390625 L 16.28125 -20.65625 L 13.921875 -20.734375 L 12.59375 -20.34375 L 11.859375 -20.046875 L 10.609375 -19.125 L 9.65625 -17.953125 L 9.015625 -16.578125 L 8.78125 -15.890625 L 8.75 -15.140625 L 8.484375 -14.453125 L 8.4375 -13.234375 L 8.5625 -11.453125 L 9.015625 -9.96875 L 9.3125 -9.3125 L 10.71875 -7.484375 L 11.21875 -6.953125 L 11.9375 -6.625 L 14 -5.859375 L 16.125 -5.8125 L 16.921875 -5.890625 L 17.6875 -6.125 L 18.984375 -6.765625 L 20.421875 -8.328125 L 20.734375 -8.96875 L 21.484375 -9.703125 L 22.328125 -10.078125 L 26.390625 -10.046875 L 27.34375 -9.625 L 27.578125 -8.9375 L 27.453125 -8.21875 L 27.1875 -7.453125 L 27 -6.734375 L 26.65625 -6.046875 L 25.515625 -4.0625 L 24.875 -3.578125 L 24.453125 -2.921875 L 23.953125 -2.4375 L 23.3125 -1.984375 L 22.625 -1.5625 L 22.0625 -1.171875 L 19.96875 -0.265625 L 16.28125 0.5 Z M 14 0.375 "/></g></g></g><g fill="#fefefe" fill-opacity="1"><g transform="translate(382.41104, 93.886916)"><g><path d="M 0.5 -1.03125 L 0.953125 -2.625 L 1.296875 -3.390625 L 1.75 -4 L 2.859375 -6.765625 L 3.921875 -8.75 L 4.1875 -9.515625 L 4.53125 -10.109375 L 4.75 -10.921875 L 5.28125 -11.90625 L 5.546875 -12.625 L 6.125 -13.609375 L 6.734375 -14.984375 L 7.15625 -15.671875 L 7.34375 -16.3125 L 9.46875 -21.109375 L 9.890625 -21.796875 L 11.53125 -25.21875 L 11.75 -25.90625 L 12.46875 -26.578125 L 13.6875 -26.96875 L 14.984375 -26.625 L 15.671875 -25.90625 L 15.890625 -25.171875 L 16.234375 -24.609375 L 16.84375 -23.15625 L 17.609375 -21.75 L 18.171875 -20.421875 L 18.375 -19.8125 L 19.046875 -18.375 L 19.28125 -17.640625 L 20.046875 -16.3125 L 20.234375 -15.59375 L 20.609375 -14.953125 L 20.921875 -14.296875 L 21.328125 -13.609375 L 21.5625 -12.859375 L 21.90625 -12.28125 L 22.171875 -11.53125 L 22.515625 -10.875 L 22.8125 -10.109375 L 23.234375 -9.515625 L 23.765625 -8.09375 L 24.15625 -7.453125 L 24.421875 -6.734375 L 25.0625 -5.359375 L 25.296875 -4.640625 L 25.671875 -4.0625 L 25.90625 -3.3125 L 26.390625 -2.65625 L 26.65625 -1.984375 L 26.890625 -1.03125 L 26.734375 -0.234375 L 26.046875 0 L 23.6875 0.078125 L 22.359375 -0.03125 L 21.671875 0.03125 L 20.6875 -0.34375 L 20.046875 -0.953125 L 19.625 -1.640625 L 19.4375 -2.3125 L 18.640625 -2.921875 L 17.375 -3.34375 L 15.59375 -3.265625 L 14.796875 -3.34375 L 14.109375 -3.34375 L 13.234375 -3.234375 L 12.4375 -3.34375 L 10.3125 -3.3125 L 9.546875 -3.390625 L 8.640625 -3 L 7.984375 -2.28125 L 7.34375 -0.984375 L 6.65625 -0.296875 L 5.78125 0.078125 L 4.796875 -0.03125 L 1.4375 -0.03125 L 0.6875 -0.234375 Z M 12.25 -9.390625 L 15.21875 -9.4375 L 15.859375 -9.734375 L 15.9375 -10.421875 L 15.671875 -11.109375 L 15.28125 -11.859375 L 15.140625 -12.46875 L 14.71875 -13.125 L 14.21875 -14.609375 L 13.765625 -14.90625 L 13.265625 -14.53125 L 12.9375 -13.921875 L 11.40625 -10.453125 L 11.53125 -9.703125 Z M 12.25 -9.390625 "/></g></g></g><g fill="#fefefe" fill-opacity="1"><g transform="translate(410.016412, 93.886916)"><g><path d="M 7.296875 -1.171875 L 7.265625 -4.140625 L 7.34375 -4.90625 L 7.21875 -7.21875 L 7.265625 -8.03125 L 7.21875 -8.78125 L 7.375 -9.921875 L 7.265625 -11.03125 L 7.265625 -12.546875 L 7.34375 -13.3125 L 7.265625 -14.03125 L 7.375 -15.21875 L 7.265625 -19.390625 L 6.890625 -20.125 L 6.203125 -20.53125 L 2.8125 -20.578125 L 1.828125 -20.453125 L 1.0625 -20.84375 L 0.640625 -21.671875 L 0.6875 -25.484375 L 1.0625 -26.234375 L 1.90625 -26.625 L 13.234375 -26.546875 L 14.109375 -26.65625 L 14.875 -26.65625 L 15.625 -26.578125 L 16.390625 -26.578125 L 17.234375 -26.703125 L 17.953125 -26.703125 L 18.5625 -26.625 L 19.46875 -26.703125 L 20.234375 -26.3125 L 20.609375 -25.5625 L 20.53125 -22.4375 L 20.609375 -21.640625 L 20.234375 -20.875 L 19.359375 -20.53125 L 17.265625 -20.578125 L 16.578125 -20.5 L 15.828125 -20.53125 L 15.171875 -20.5 L 14.34375 -20.15625 L 14.03125 -19.46875 L 14.109375 -18.640625 L 14 -17.875 L 14.140625 -10.3125 L 14.03125 -8.703125 L 14.109375 -8.03125 L 14.03125 -5.703125 L 13.921875 -4.90625 L 14.03125 -4.265625 L 14.078125 -2.734375 L 14 -1.859375 L 14.03125 -1.140625 L 13.734375 -0.375 L 12.96875 -0.078125 L 10.609375 -0.078125 L 9.890625 0 L 9.125 -0.078125 L 8.40625 0 L 7.609375 -0.375 Z M 7.296875 -1.171875 "/></g></g></g><g fill="#fefefe" fill-opacity="1"><g transform="translate(431.271787, 93.886916)"><g><path d="M 1.828125 -1.109375 L 1.828125 -4.03125 L 1.90625 -4.75 L 2.359375 -5.46875 L 4.875 -6.28125 L 5.25 -7.109375 L 5.328125 -8.59375 L 5.171875 -10.234375 L 5.359375 -10.984375 L 5.203125 -12.46875 L 5.28125 -13.234375 L 5.328125 -14.796875 L 5.203125 -15.671875 L 5.171875 -16.3125 L 5.28125 -19.546875 L 4.796875 -20.234375 L 2.46875 -21.03125 L 2.09375 -21.75 L 2.09375 -22.46875 L 2.015625 -23.234375 L 2.015625 -24.078125 L 2.09375 -24.71875 L 2.09375 -25.4375 L 2.515625 -26.234375 L 3.34375 -26.625 L 4.828125 -26.546875 L 5.546875 -26.578125 L 7.875 -26.546875 L 8.703125 -26.625 L 13.546875 -26.578125 L 14.75 -26.234375 L 15.0625 -25.484375 L 15.140625 -24.71875 L 15.0625 -24.03125 L 15.0625 -21.796875 L 14.640625 -21.0625 L 13.921875 -20.65625 L 13.078125 -20.609375 L 12.359375 -20.1875 L 11.9375 -19.515625 L 11.9375 -17.90625 L 12.015625 -17.109375 L 11.9375 -16.359375 L 12.015625 -15.625 L 11.9375 -14.453125 L 12.015625 -13.3125 L 11.859375 -11.71875 L 12.015625 -10.1875 L 11.9375 -7.078125 L 12.359375 -6.3125 L 14.90625 -5.515625 L 15.4375 -4.875 L 15.328125 -2.546875 L 15.40625 -1.859375 L 15.40625 -1.03125 L 14.984375 -0.34375 L 14.265625 0.03125 L 2.96875 -0.03125 L 2.203125 -0.296875 Z M 1.828125 -1.109375 "/></g></g></g><g fill="#fefefe" fill-opacity="1"><g transform="translate(448.534643, 93.886916)"><g><path d="M 14.21875 0.453125 L 13.421875 0.375 L 12.0625 0.078125 L 11.21875 0 L 10.109375 -0.375 L 7.15625 -1.90625 L 5.890625 -2.890625 L 5.46875 -3.390625 L 4.90625 -3.921875 L 4.40625 -4.53125 L 3.953125 -4.984375 L 2.203125 -8.4375 L 1.859375 -9.890625 L 1.78125 -10.609375 L 1.59375 -11.296875 L 1.484375 -12.09375 L 1.59375 -15.171875 L 2.25 -18.109375 L 2.8125 -19.546875 L 4 -21.5625 L 5.859375 -23.734375 L 7.15625 -24.6875 L 7.828125 -25.03125 L 8.40625 -25.4375 L 11.25 -26.515625 L 15.28125 -27.078125 L 16.3125 -27.046875 L 18.515625 -26.65625 L 21.453125 -25.75 L 22.015625 -25.328125 L 23.15625 -24.828125 L 24.03125 -24.21875 L 25.140625 -23.28125 L 26.203125 -22.09375 L 27.046875 -20.953125 L 27.765625 -19.546875 L 28.71875 -16.703125 L 28.984375 -15.140625 L 29.09375 -13.234375 L 28.9375 -12.125 L 28.90625 -11.328125 L 28.71875 -10.578125 L 28.671875 -9.890625 L 28.375 -8.4375 L 27.796875 -7 L 26.125 -4.453125 L 25.59375 -3.921875 L 25.09375 -3.234375 L 24.03125 -2.3125 L 23.3125 -1.984375 L 22.75 -1.515625 L 21.484375 -0.84375 L 18.640625 0.109375 L 16.359375 0.421875 Z M 16.359375 -6.28125 L 17.109375 -6.421875 L 17.6875 -6.6875 L 18.375 -6.890625 L 20.1875 -8.140625 L 20.734375 -8.75 L 20.953125 -9.3125 L 21.375 -10 L 21.640625 -10.6875 L 21.9375 -12.09375 L 22.015625 -14.40625 L 21.90625 -15.09375 L 21.5625 -15.828125 L 21.109375 -17.265625 L 19.625 -18.828125 L 18.4375 -19.65625 L 17.765625 -19.96875 L 17.078125 -20.125 L 15.25 -20.34375 L 14.1875 -20.265625 L 12.703125 -19.890625 L 12.203125 -19.703125 L 10.3125 -18.40625 L 9.390625 -17.1875 L 9.171875 -16.5 L 8.859375 -15.828125 L 8.75 -15.09375 L 8.5625 -14.40625 L 8.5625 -12.09375 L 8.859375 -10.6875 L 9.203125 -10 L 9.390625 -9.390625 L 9.921875 -8.671875 L 10.421875 -8.140625 L 11.453125 -7.296875 L 12.0625 -6.953125 L 13.421875 -6.390625 L 14.265625 -6.28125 Z M 16.359375 -6.28125 "/></g></g></g><g fill="#fefefe" fill-opacity="1"><g transform="translate(479.029848, 93.886916)"><g><path d="M 22.4375 -0.609375 L 21.9375 -1.109375 L 21.484375 -1.671875 L 20.875 -2.171875 L 20.390625 -2.78125 L 16.703125 -6.46875 L 16.09375 -6.953125 L 10.65625 -12.28125 L 10.15625 -12.390625 L 9.78125 -11.9375 L 9.921875 -11.140625 L 9.8125 -1.828125 L 9.921875 -1.0625 L 9.578125 -0.296875 L 8.828125 0.078125 L 7.953125 0 L 7.15625 0.109375 L 5.25 0 L 3.953125 0.078125 L 3.234375 -0.34375 L 2.890625 -1.171875 L 2.890625 -1.90625 L 2.78125 -2.65625 L 2.890625 -4.109375 L 2.8125 -4.875 L 2.859375 -6.421875 L 2.734375 -7.21875 L 2.734375 -7.953125 L 2.8125 -8.78125 L 2.8125 -9.515625 L 2.890625 -10.1875 L 2.734375 -15.625 L 2.859375 -16.421875 L 2.8125 -17.234375 L 2.890625 -17.90625 L 2.78125 -19.46875 L 2.859375 -20.234375 L 2.78125 -25.5625 L 3.265625 -26.28125 L 4.1875 -26.734375 L 5.203125 -26.4375 L 6.734375 -25.40625 L 8.78125 -23.3125 L 9.28125 -22.671875 L 9.921875 -22.203125 L 10.3125 -21.640625 L 11.03125 -21.140625 L 11.453125 -20.578125 L 12.625 -19.59375 L 13.421875 -18.75 L 13.84375 -18.21875 L 14.453125 -17.765625 L 15.78125 -16.390625 L 16.359375 -15.9375 L 18.03125 -14.21875 L 18.5625 -14.078125 L 18.75 -14.6875 L 18.71875 -16.203125 L 18.859375 -17 L 18.859375 -17.71875 L 18.71875 -18.515625 L 18.75 -25.4375 L 19.125 -26.234375 L 20.046875 -26.625 L 20.796875 -26.578125 L 21.484375 -26.65625 L 22.28125 -26.546875 L 23.125 -26.625 L 23.84375 -26.625 L 24.609375 -26.546875 L 25.4375 -26.171875 L 25.90625 -25.484375 L 25.828125 -23.5 L 25.90625 -22.359375 L 25.75 -21.609375 L 25.75 -20.078125 L 25.828125 -19.359375 L 25.703125 -17.84375 L 25.859375 -13.265625 L 25.78125 -12.4375 L 25.9375 -11.375 L 25.75 -1.03125 L 25.40625 -0.234375 L 24.53125 0.1875 L 23.546875 -0.109375 Z M 22.4375 -0.609375 "/></g></g></g><g fill="#fefefe" fill-opacity="1"><g transform="translate(158.145998, 136.274321)"><g><path d="M 13.234375 0.109375 L 12.46875 0.03125 L 11.71875 0.109375 L 10.84375 0.078125 L 10.109375 -0.078125 L 8.5625 0.03125 L 7.875 0 L 7.03125 0.078125 L 4.296875 0.03125 L 3.15625 -0.453125 L 2.859375 -1.484375 L 2.78125 -2.3125 L 2.890625 -4.9375 L 2.78125 -5.703125 L 2.859375 -6.421875 L 2.890625 -12.59375 L 2.78125 -13.265625 L 2.8125 -16.390625 L 2.890625 -17.109375 L 2.78125 -17.90625 L 2.859375 -21.640625 L 2.734375 -22.46875 L 2.859375 -24.03125 L 2.78125 -25.484375 L 3.1875 -26.28125 L 4 -26.578125 L 4.75 -26.546875 L 5.515625 -26.625 L 6.203125 -26.546875 L 6.921875 -26.703125 L 7.6875 -26.578125 L 10.796875 -26.65625 L 11.5625 -26.578125 L 12.203125 -26.625 L 12.96875 -26.546875 L 13.8125 -26.625 L 16.890625 -26.65625 L 17.578125 -26.515625 L 18.375 -26.515625 L 19.125 -26.203125 L 19.46875 -25.484375 L 19.546875 -23.203125 L 19.515625 -22.4375 L 19.546875 -21.671875 L 19.171875 -21 L 18.375 -20.53125 L 17.640625 -20.5 L 12.203125 -20.578125 L 11.484375 -20.421875 L 10.765625 -20.453125 L 9.921875 -20.15625 L 9.578125 -19.4375 L 9.578125 -18.25 L 9.890625 -17.078125 L 10.6875 -16.734375 L 12.890625 -16.8125 L 14.484375 -16.703125 L 15.28125 -16.765625 L 17.53125 -16.765625 L 18.40625 -16.28125 L 18.78125 -15.21875 L 18.671875 -11.796875 L 18.40625 -11.03125 L 17.640625 -10.71875 L 16.765625 -10.765625 L 16.015625 -10.6875 L 14.453125 -10.71875 L 13 -10.65625 L 11.796875 -10.765625 L 10.65625 -10.71875 L 9.96875 -10.3125 L 9.625 -9.515625 L 9.625 -7.109375 L 9.921875 -6.421875 L 10.71875 -6.046875 L 11.5625 -6.125 L 12.28125 -6.015625 L 13.125 -6.046875 L 13.875 -5.96875 L 15.140625 -6.125 L 17.078125 -6.078125 L 17.796875 -5.96875 L 18.671875 -6.046875 L 19.46875 -5.703125 L 19.890625 -4.9375 L 19.890625 -1.109375 L 19.46875 -0.296875 L 18.671875 0.03125 Z M 13.234375 0.109375 "/></g></g></g><g fill="#fefefe" fill-opacity="1"><g transform="translate(179.933693, 136.274321)"><g><path d="M 22.4375 -0.609375 L 21.9375 -1.109375 L 21.484375 -1.671875 L 20.875 -2.171875 L 20.390625 -2.78125 L 16.703125 -6.46875 L 16.09375 -6.953125 L 10.65625 -12.28125 L 10.15625 -12.390625 L 9.78125 -11.9375 L 9.921875 -11.140625 L 9.8125 -1.828125 L 9.921875 -1.0625 L 9.578125 -0.296875 L 8.828125 0.078125 L 7.953125 0 L 7.15625 0.109375 L 5.25 0 L 3.953125 0.078125 L 3.234375 -0.34375 L 2.890625 -1.171875 L 2.890625 -1.90625 L 2.78125 -2.65625 L 2.890625 -4.109375 L 2.8125 -4.875 L 2.859375 -6.421875 L 2.734375 -7.21875 L 2.734375 -7.953125 L 2.8125 -8.78125 L 2.8125 -9.515625 L 2.890625 -10.1875 L 2.734375 -15.625 L 2.859375 -16.421875 L 2.8125 -17.234375 L 2.890625 -17.90625 L 2.78125 -19.46875 L 2.859375 -20.234375 L 2.78125 -25.5625 L 3.265625 -26.28125 L 4.1875 -26.734375 L 5.203125 -26.4375 L 6.734375 -25.40625 L 8.78125 -23.3125 L 9.28125 -22.671875 L 9.921875 -22.203125 L 10.3125 -21.640625 L 11.03125 -21.140625 L 11.453125 -20.578125 L 12.625 -19.59375 L 13.421875 -18.75 L 13.84375 -18.21875 L 14.453125 -17.765625 L 15.78125 -16.390625 L 16.359375 -15.9375 L 18.03125 -14.21875 L 18.5625 -14.078125 L 18.75 -14.6875 L 18.71875 -16.203125 L 18.859375 -17 L 18.859375 -17.71875 L 18.71875 -18.515625 L 18.75 -25.4375 L 19.125 -26.234375 L 20.046875 -26.625 L 20.796875 -26.578125 L 21.484375 -26.65625 L 22.28125 -26.546875 L 23.125 -26.625 L 23.84375 -26.625 L 24.609375 -26.546875 L 25.4375 -26.171875 L 25.90625 -25.484375 L 25.828125 -23.5 L 25.90625 -22.359375 L 25.75 -21.609375 L 25.75 -20.078125 L 25.828125 -19.359375 L 25.703125 -17.84375 L 25.859375 -13.265625 L 25.78125 -12.4375 L 25.9375 -11.375 L 25.75 -1.03125 L 25.40625 -0.234375 L 24.53125 0.1875 L 23.546875 -0.109375 Z M 22.4375 -0.609375 "/></g></g></g><g fill="#fefefe" fill-opacity="1"><g transform="translate(208.603721, 136.274321)"><g><path d="M 13.921875 0.453125 L 13.125 0.375 L 10.984375 -0.078125 L 8.859375 -0.84375 L 8.171875 -1.171875 L 5.75 -2.8125 L 4.671875 -3.921875 L 3.3125 -5.625 L 2.890625 -6.34375 L 2.09375 -8.4375 L 1.4375 -11.375 L 1.40625 -12.171875 L 1.484375 -13.234375 L 1.40625 -15.140625 L 1.828125 -16.8125 L 1.859375 -17.5 L 3.046875 -20.390625 L 3.453125 -21.109375 L 4.03125 -21.640625 L 4.40625 -22.25 L 4.90625 -22.890625 L 6.046875 -23.953125 L 7.953125 -25.25 L 8.640625 -25.59375 L 11.53125 -26.625 L 13.84375 -27 L 17.609375 -26.8125 L 18.4375 -26.578125 L 19.203125 -26.46875 L 19.8125 -26.203125 L 20.65625 -25.96875 L 23.234375 -24.375 L 24.34375 -23.28125 L 25.296875 -22.0625 L 25.828125 -21.53125 L 27.046875 -18.71875 L 26.78125 -17.875 L 26.125 -17.640625 L 25.40625 -17.578125 L 21.671875 -17.578125 L 20.84375 -17.953125 L 20 -18.5625 L 19.625 -19.171875 L 17.71875 -20.34375 L 17 -20.53125 L 15.015625 -20.765625 L 13.953125 -20.734375 L 12.46875 -20.234375 L 11.828125 -19.921875 L 10.578125 -19.046875 L 9.578125 -17.984375 L 9.015625 -16.578125 L 8.859375 -15.828125 L 8.4375 -14.453125 L 8.671875 -10.65625 L 8.9375 -9.921875 L 9.359375 -9.234375 L 9.65625 -8.59375 L 10.078125 -7.953125 L 11.21875 -7.03125 L 12.59375 -6.3125 L 13.265625 -6.046875 L 13.953125 -5.890625 L 15.140625 -5.8125 L 16.234375 -5.859375 L 17 -5.96875 L 18.4375 -6.421875 L 19.046875 -6.734375 L 20.15625 -7.796875 L 20.453125 -8.40625 L 20.3125 -9.046875 L 19.78125 -9.46875 L 17.5 -9.359375 L 16.8125 -9.4375 L 16.09375 -9.4375 L 15.359375 -9.78125 L 15.140625 -10.421875 L 14.984375 -11.140625 L 15.0625 -14 L 15.40625 -14.71875 L 16.578125 -15.140625 L 26.125 -15.140625 L 27.234375 -14.796875 L 27.6875 -14.03125 L 27.796875 -13.265625 L 27.65625 -10.375 L 27.421875 -9.625 L 27.375 -8.90625 L 26.890625 -7.265625 L 26.015625 -5.515625 L 24.796875 -3.734375 L 23.6875 -2.546875 L 22.4375 -1.75 L 21.90625 -1.296875 L 19.09375 -0.078125 L 18.4375 0.109375 L 17.71875 0.15625 L 16.96875 0.296875 L 14.90625 0.5 Z M 13.921875 0.453125 "/></g></g></g><g fill="#fefefe" fill-opacity="1"><g transform="translate(237.730035, 136.274321)"><g><path d="M 1.828125 -1.109375 L 1.828125 -4.03125 L 1.90625 -4.75 L 2.359375 -5.46875 L 4.875 -6.28125 L 5.25 -7.109375 L 5.328125 -8.59375 L 5.171875 -10.234375 L 5.359375 -10.984375 L 5.203125 -12.46875 L 5.28125 -13.234375 L 5.328125 -14.796875 L 5.203125 -15.671875 L 5.171875 -16.3125 L 5.28125 -19.546875 L 4.796875 -20.234375 L 2.46875 -21.03125 L 2.09375 -21.75 L 2.09375 -22.46875 L 2.015625 -23.234375 L 2.015625 -24.078125 L 2.09375 -24.71875 L 2.09375 -25.4375 L 2.515625 -26.234375 L 3.34375 -26.625 L 4.828125 -26.546875 L 5.546875 -26.578125 L 7.875 -26.546875 L 8.703125 -26.625 L 13.546875 -26.578125 L 14.75 -26.234375 L 15.0625 -25.484375 L 15.140625 -24.71875 L 15.0625 -24.03125 L 15.0625 -21.796875 L 14.640625 -21.0625 L 13.921875 -20.65625 L 13.078125 -20.609375 L 12.359375 -20.1875 L 11.9375 -19.515625 L 11.9375 -17.90625 L 12.015625 -17.109375 L 11.9375 -16.359375 L 12.015625 -15.625 L 11.9375 -14.453125 L 12.015625 -13.3125 L 11.859375 -11.71875 L 12.015625 -10.1875 L 11.9375 -7.078125 L 12.359375 -6.3125 L 14.90625 -5.515625 L 15.4375 -4.875 L 15.328125 -2.546875 L 15.40625 -1.859375 L 15.40625 -1.03125 L 14.984375 -0.34375 L 14.265625 0.03125 L 2.96875 -0.03125 L 2.203125 -0.296875 Z M 1.828125 -1.109375 "/></g></g></g><g fill="#fefefe" fill-opacity="1"><g transform="translate(254.992891, 136.274321)"><g><path d="M 22.4375 -0.609375 L 21.9375 -1.109375 L 21.484375 -1.671875 L 20.875 -2.171875 L 20.390625 -2.78125 L 16.703125 -6.46875 L 16.09375 -6.953125 L 10.65625 -12.28125 L 10.15625 -12.390625 L 9.78125 -11.9375 L 9.921875 -11.140625 L 9.8125 -1.828125 L 9.921875 -1.0625 L 9.578125 -0.296875 L 8.828125 0.078125 L 7.953125 0 L 7.15625 0.109375 L 5.25 0 L 3.953125 0.078125 L 3.234375 -0.34375 L 2.890625 -1.171875 L 2.890625 -1.90625 L 2.78125 -2.65625 L 2.890625 -4.109375 L 2.8125 -4.875 L 2.859375 -6.421875 L 2.734375 -7.21875 L 2.734375 -7.953125 L 2.8125 -8.78125 L 2.8125 -9.515625 L 2.890625 -10.1875 L 2.734375 -15.625 L 2.859375 -16.421875 L 2.8125 -17.234375 L 2.890625 -17.90625 L 2.78125 -19.46875 L 2.859375 -20.234375 L 2.78125 -25.5625 L 3.265625 -26.28125 L 4.1875 -26.734375 L 5.203125 -26.4375 L 6.734375 -25.40625 L 8.78125 -23.3125 L 9.28125 -22.671875 L 9.921875 -22.203125 L 10.3125 -21.640625 L 11.03125 -21.140625 L 11.453125 -20.578125 L 12.625 -19.59375 L 13.421875 -18.75 L 13.84375 -18.21875 L 14.453125 -17.765625 L 15.78125 -16.390625 L 16.359375 -15.9375 L 18.03125 -14.21875 L 18.5625 -14.078125 L 18.75 -14.6875 L 18.71875 -16.203125 L 18.859375 -17 L 18.859375 -17.71875 L 18.71875 -18.515625 L 18.75 -25.4375 L 19.125 -26.234375 L 20.046875 -26.625 L 20.796875 -26.578125 L 21.484375 -26.65625 L 22.28125 -26.546875 L 23.125 -26.625 L 23.84375 -26.625 L 24.609375 -26.546875 L 25.4375 -26.171875 L 25.90625 -25.484375 L 25.828125 -23.5 L 25.90625 -22.359375 L 25.75 -21.609375 L 25.75 -20.078125 L 25.828125 -19.359375 L 25.703125 -17.84375 L 25.859375 -13.265625 L 25.78125 -12.4375 L 25.9375 -11.375 L 25.75 -1.03125 L 25.40625 -0.234375 L 24.53125 0.1875 L 23.546875 -0.109375 Z M 22.4375 -0.609375 "/></g></g></g><g fill="#fefefe" fill-opacity="1"><g transform="translate(283.662919, 136.274321)"><g><path d="M 2.734375 -1.109375 L 2.890625 -1.859375 L 2.921875 -2.625 L 2.859375 -4.109375 L 2.859375 -4.875 L 2.78125 -5.75 L 2.890625 -6.421875 L 2.859375 -7.15625 L 2.921875 -7.984375 L 2.8125 -8.78125 L 2.890625 -10.3125 L 2.78125 -11.796875 L 2.890625 -12.59375 L 2.890625 -19.390625 L 2.8125 -20.078125 L 2.890625 -20.875 L 2.734375 -22.8125 L 2.890625 -23.921875 L 2.8125 -25.4375 L 3.1875 -26.28125 L 4.296875 -26.546875 L 9.28125 -26.65625 L 9.96875 -26.578125 L 11.453125 -26.625 L 12.203125 -26.546875 L 13.875 -26.625 L 14.640625 -26.515625 L 15.328125 -26.578125 L 18.375 -26.546875 L 19.171875 -26.203125 L 19.546875 -25.4375 L 19.4375 -24.71875 L 19.390625 -23.890625 L 19.515625 -23.15625 L 19.59375 -21.609375 L 19.171875 -20.921875 L 18.375 -20.5 L 11.0625 -20.453125 L 9.890625 -20.125 L 9.515625 -19.015625 L 9.578125 -17.84375 L 10.046875 -17.15625 L 10.6875 -16.734375 L 13.6875 -16.765625 L 14.5625 -16.703125 L 15.359375 -16.703125 L 16.125 -16.765625 L 17.640625 -16.734375 L 18.296875 -16.3125 L 18.640625 -15.59375 L 18.71875 -14.828125 L 18.640625 -11.828125 L 18.25 -11.109375 L 17.5 -10.6875 L 16.8125 -10.65625 L 16.015625 -10.71875 L 14.984375 -10.65625 L 12.96875 -10.765625 L 12.203125 -10.6875 L 10.71875 -10.6875 L 10.046875 -10.265625 L 9.703125 -9.46875 L 9.65625 -7.609375 L 10 -6.421875 L 10.796875 -5.96875 L 11.640625 -6.046875 L 12.46875 -5.96875 L 13.203125 -6.078125 L 18.21875 -6.015625 L 19.359375 -5.625 L 19.859375 -4.875 L 19.78125 -4.140625 L 19.8125 -1.78125 L 19.734375 -1.0625 L 19.390625 -0.34375 L 18.59375 0.03125 L 17.875 0.109375 L 15.5625 -0.03125 L 13.234375 0.078125 L 12.546875 -0.03125 L 3.953125 0.03125 L 3.234375 -0.375 Z M 2.734375 -1.109375 "/></g></g></g><g fill="#fefefe" fill-opacity="1"><g transform="translate(305.450614, 136.274321)"><g><path d="M 2.734375 -1.109375 L 2.890625 -1.859375 L 2.921875 -2.625 L 2.859375 -4.109375 L 2.859375 -4.875 L 2.78125 -5.75 L 2.890625 -6.421875 L 2.859375 -7.15625 L 2.921875 -7.984375 L 2.8125 -8.78125 L 2.890625 -10.3125 L 2.78125 -11.796875 L 2.890625 -12.59375 L 2.890625 -19.390625 L 2.8125 -20.078125 L 2.890625 -20.875 L 2.734375 -22.8125 L 2.890625 -23.921875 L 2.8125 -25.4375 L 3.1875 -26.28125 L 4.296875 -26.546875 L 9.28125 -26.65625 L 9.96875 -26.578125 L 11.453125 -26.625 L 12.203125 -26.546875 L 13.875 -26.625 L 14.640625 -26.515625 L 15.328125 -26.578125 L 18.375 -26.546875 L 19.171875 -26.203125 L 19.546875 -25.4375 L 19.4375 -24.71875 L 19.390625 -23.890625 L 19.515625 -23.15625 L 19.59375 -21.609375 L 19.171875 -20.921875 L 18.375 -20.5 L 11.0625 -20.453125 L 9.890625 -20.125 L 9.515625 -19.015625 L 9.578125 -17.84375 L 10.046875 -17.15625 L 10.6875 -16.734375 L 13.6875 -16.765625 L 14.5625 -16.703125 L 15.359375 -16.703125 L 16.125 -16.765625 L 17.640625 -16.734375 L 18.296875 -16.3125 L 18.640625 -15.59375 L 18.71875 -14.828125 L 18.640625 -11.828125 L 18.25 -11.109375 L 17.5 -10.6875 L 16.8125 -10.65625 L 16.015625 -10.71875 L 14.984375 -10.65625 L 12.96875 -10.765625 L 12.203125 -10.6875 L 10.71875 -10.6875 L 10.046875 -10.265625 L 9.703125 -9.46875 L 9.65625 -7.609375 L 10 -6.421875 L 10.796875 -5.96875 L 11.640625 -6.046875 L 12.46875 -5.96875 L 13.203125 -6.078125 L 18.21875 -6.015625 L 19.359375 -5.625 L 19.859375 -4.875 L 19.78125 -4.140625 L 19.8125 -1.78125 L 19.734375 -1.0625 L 19.390625 -0.34375 L 18.59375 0.03125 L 17.875 0.109375 L 15.5625 -0.03125 L 13.234375 0.078125 L 12.546875 -0.03125 L 3.953125 0.03125 L 3.234375 -0.375 Z M 2.734375 -1.109375 "/></g></g></g><g fill="#fefefe" fill-opacity="1"><g transform="translate(327.238309, 136.274321)"><g><path d="M 2.921875 -1.21875 L 2.8125 -4.1875 L 2.890625 -4.984375 L 2.734375 -7.1875 L 2.859375 -8.75 L 2.734375 -9.578125 L 2.78125 -11.03125 L 2.859375 -11.828125 L 2.859375 -13.734375 L 2.734375 -14.828125 L 2.859375 -25.484375 L 3.15625 -26.28125 L 3.875 -26.625 L 4.71875 -26.578125 L 5.4375 -26.703125 L 7 -26.546875 L 7.71875 -26.65625 L 10 -26.578125 L 10.65625 -26.65625 L 11.484375 -26.578125 L 12.25 -26.65625 L 13.078125 -26.625 L 14.1875 -26.65625 L 15.140625 -26.578125 L 18.296875 -25.9375 L 19.625 -25.25 L 21.53125 -23.8125 L 21.875 -23.234375 L 22.40625 -22.671875 L 23.421875 -20.578125 L 23.625 -19.8125 L 23.734375 -19.09375 L 23.921875 -18.375 L 23.890625 -15.359375 L 23.46875 -13.921875 L 23.203125 -13.265625 L 22.78125 -12.59375 L 22.515625 -11.859375 L 22.0625 -11.21875 L 21 -10.1875 L 20.578125 -9.390625 L 20.6875 -8.484375 L 21.828125 -6.5 L 22.328125 -5.890625 L 22.703125 -5.203125 L 23.15625 -4.53125 L 23.5 -3.875 L 24.71875 -2.015625 L 25.21875 -1.0625 L 25.0625 -0.265625 L 24.265625 -0.078125 L 23.421875 0 L 21.90625 0 L 21.140625 -0.078125 L 20.3125 0 L 18.9375 -0.078125 L 17.984375 -0.296875 L 17.234375 -0.984375 L 16.765625 -1.59375 L 16.421875 -2.25 L 15.9375 -2.96875 L 14.875 -4.875 L 14.609375 -5.59375 L 13.609375 -6.921875 L 13 -7.5625 L 12.0625 -7.875 L 11.375 -7.828125 L 10.6875 -7.828125 L 9.921875 -7.453125 L 9.578125 -6.6875 L 9.65625 -4.328125 L 9.546875 -2.703125 L 9.703125 -1.90625 L 9.625 -1.109375 L 9.359375 -0.375 L 8.171875 0 L 7.03125 0 L 6.234375 -0.078125 L 4.671875 0.03125 L 3.953125 0 L 3.1875 -0.375 Z M 10.6875 -14 L 11.53125 -14 L 12.28125 -13.875 L 15.25 -14.140625 L 15.828125 -14.40625 L 16.28125 -14.875 L 16.703125 -15.515625 L 17 -16.28125 L 17.109375 -17.296875 L 17.03125 -18.40625 L 16.765625 -19.015625 L 16.390625 -19.59375 L 15.21875 -20.3125 L 13.46875 -20.53125 L 11.375 -20.578125 L 10.765625 -20.53125 L 10 -20.15625 L 9.546875 -19.390625 L 9.65625 -15.140625 L 10.046875 -14.34375 Z M 10.6875 -14 "/></g></g></g><g fill="#fefefe" fill-opacity="1"><g transform="translate(353.588887, 136.274321)"><g><path d="M 1.828125 -1.109375 L 1.828125 -4.03125 L 1.90625 -4.75 L 2.359375 -5.46875 L 4.875 -6.28125 L 5.25 -7.109375 L 5.328125 -8.59375 L 5.171875 -10.234375 L 5.359375 -10.984375 L 5.203125 -12.46875 L 5.28125 -13.234375 L 5.328125 -14.796875 L 5.203125 -15.671875 L 5.171875 -16.3125 L 5.28125 -19.546875 L 4.796875 -20.234375 L 2.46875 -21.03125 L 2.09375 -21.75 L 2.09375 -22.46875 L 2.015625 -23.234375 L 2.015625 -24.078125 L 2.09375 -24.71875 L 2.09375 -25.4375 L 2.515625 -26.234375 L 3.34375 -26.625 L 4.828125 -26.546875 L 5.546875 -26.578125 L 7.875 -26.546875 L 8.703125 -26.625 L 13.546875 -26.578125 L 14.75 -26.234375 L 15.0625 -25.484375 L 15.140625 -24.71875 L 15.0625 -24.03125 L 15.0625 -21.796875 L 14.640625 -21.0625 L 13.921875 -20.65625 L 13.078125 -20.609375 L 12.359375 -20.1875 L 11.9375 -19.515625 L 11.9375 -17.90625 L 12.015625 -17.109375 L 11.9375 -16.359375 L 12.015625 -15.625 L 11.9375 -14.453125 L 12.015625 -13.3125 L 11.859375 -11.71875 L 12.015625 -10.1875 L 11.9375 -7.078125 L 12.359375 -6.3125 L 14.90625 -5.515625 L 15.4375 -4.875 L 15.328125 -2.546875 L 15.40625 -1.859375 L 15.40625 -1.03125 L 14.984375 -0.34375 L 14.265625 0.03125 L 2.96875 -0.03125 L 2.203125 -0.296875 Z M 1.828125 -1.109375 "/></g></g></g><g fill="#fefefe" fill-opacity="1"><g transform="translate(370.851743, 136.274321)"><g><path d="M 22.4375 -0.609375 L 21.9375 -1.109375 L 21.484375 -1.671875 L 20.875 -2.171875 L 20.390625 -2.78125 L 16.703125 -6.46875 L 16.09375 -6.953125 L 10.65625 -12.28125 L 10.15625 -12.390625 L 9.78125 -11.9375 L 9.921875 -11.140625 L 9.8125 -1.828125 L 9.921875 -1.0625 L 9.578125 -0.296875 L 8.828125 0.078125 L 7.953125 0 L 7.15625 0.109375 L 5.25 0 L 3.953125 0.078125 L 3.234375 -0.34375 L 2.890625 -1.171875 L 2.890625 -1.90625 L 2.78125 -2.65625 L 2.890625 -4.109375 L 2.8125 -4.875 L 2.859375 -6.421875 L 2.734375 -7.21875 L 2.734375 -7.953125 L 2.8125 -8.78125 L 2.8125 -9.515625 L 2.890625 -10.1875 L 2.734375 -15.625 L 2.859375 -16.421875 L 2.8125 -17.234375 L 2.890625 -17.90625 L 2.78125 -19.46875 L 2.859375 -20.234375 L 2.78125 -25.5625 L 3.265625 -26.28125 L 4.1875 -26.734375 L 5.203125 -26.4375 L 6.734375 -25.40625 L 8.78125 -23.3125 L 9.28125 -22.671875 L 9.921875 -22.203125 L 10.3125 -21.640625 L 11.03125 -21.140625 L 11.453125 -20.578125 L 12.625 -19.59375 L 13.421875 -18.75 L 13.84375 -18.21875 L 14.453125 -17.765625 L 15.78125 -16.390625 L 16.359375 -15.9375 L 18.03125 -14.21875 L 18.5625 -14.078125 L 18.75 -14.6875 L 18.71875 -16.203125 L 18.859375 -17 L 18.859375 -17.71875 L 18.71875 -18.515625 L 18.75 -25.4375 L 19.125 -26.234375 L 20.046875 -26.625 L 20.796875 -26.578125 L 21.484375 -26.65625 L 22.28125 -26.546875 L 23.125 -26.625 L 23.84375 -26.625 L 24.609375 -26.546875 L 25.4375 -26.171875 L 25.90625 -25.484375 L 25.828125 -23.5 L 25.90625 -22.359375 L 25.75 -21.609375 L 25.75 -20.078125 L 25.828125 -19.359375 L 25.703125 -17.84375 L 25.859375 -13.265625 L 25.78125 -12.4375 L 25.9375 -11.375 L 25.75 -1.03125 L 25.40625 -0.234375 L 24.53125 0.1875 L 23.546875 -0.109375 Z M 22.4375 -0.609375 "/></g></g></g><g fill="#fefefe" fill-opacity="1"><g transform="translate(399.521771, 136.274321)"><g><path d="M 13.921875 0.453125 L 13.125 0.375 L 10.984375 -0.078125 L 8.859375 -0.84375 L 8.171875 -1.171875 L 5.75 -2.8125 L 4.671875 -3.921875 L 3.3125 -5.625 L 2.890625 -6.34375 L 2.09375 -8.4375 L 1.4375 -11.375 L 1.40625 -12.171875 L 1.484375 -13.234375 L 1.40625 -15.140625 L 1.828125 -16.8125 L 1.859375 -17.5 L 3.046875 -20.390625 L 3.453125 -21.109375 L 4.03125 -21.640625 L 4.40625 -22.25 L 4.90625 -22.890625 L 6.046875 -23.953125 L 7.953125 -25.25 L 8.640625 -25.59375 L 11.53125 -26.625 L 13.84375 -27 L 17.609375 -26.8125 L 18.4375 -26.578125 L 19.203125 -26.46875 L 19.8125 -26.203125 L 20.65625 -25.96875 L 23.234375 -24.375 L 24.34375 -23.28125 L 25.296875 -22.0625 L 25.828125 -21.53125 L 27.046875 -18.71875 L 26.78125 -17.875 L 26.125 -17.640625 L 25.40625 -17.578125 L 21.671875 -17.578125 L 20.84375 -17.953125 L 20 -18.5625 L 19.625 -19.171875 L 17.71875 -20.34375 L 17 -20.53125 L 15.015625 -20.765625 L 13.953125 -20.734375 L 12.46875 -20.234375 L 11.828125 -19.921875 L 10.578125 -19.046875 L 9.578125 -17.984375 L 9.015625 -16.578125 L 8.859375 -15.828125 L 8.4375 -14.453125 L 8.671875 -10.65625 L 8.9375 -9.921875 L 9.359375 -9.234375 L 9.65625 -8.59375 L 10.078125 -7.953125 L 11.21875 -7.03125 L 12.59375 -6.3125 L 13.265625 -6.046875 L 13.953125 -5.890625 L 15.140625 -5.8125 L 16.234375 -5.859375 L 17 -5.96875 L 18.4375 -6.421875 L 19.046875 -6.734375 L 20.15625 -7.796875 L 20.453125 -8.40625 L 20.3125 -9.046875 L 19.78125 -9.46875 L 17.5 -9.359375 L 16.8125 -9.4375 L 16.09375 -9.4375 L 15.359375 -9.78125 L 15.140625 -10.421875 L 14.984375 -11.140625 L 15.0625 -14 L 15.40625 -14.71875 L 16.578125 -15.140625 L 26.125 -15.140625 L 27.234375 -14.796875 L 27.6875 -14.03125 L 27.796875 -13.265625 L 27.65625 -10.375 L 27.421875 -9.625 L 27.375 -8.90625 L 26.890625 -7.265625 L 26.015625 -5.515625 L 24.796875 -3.734375 L 23.6875 -2.546875 L 22.4375 -1.75 L 21.90625 -1.296875 L 19.09375 -0.078125 L 18.4375 0.109375 L 17.71875 0.15625 L 16.96875 0.296875 L 14.90625 0.5 Z M 13.921875 0.453125 "/></g></g></g></svg>